<svg width="41" height="41" viewBox="0 0 41 41" fill="none" xmlns="http://www.w3.org/2000/svg">
<g clip-path="url(#clip0)">
<path d="M9.93153 16.3043L8.73558 13.8522C8.56817 13.5103 8.54246 13.1159 8.66408 12.755C8.7857 12.3942 9.04475 12.0964 9.38455 11.9268V11.9268C9.72024 11.7591 10.1079 11.7299 10.4648 11.8454C10.8217 11.9609 11.1194 12.2118 11.2944 12.5447L15.8724 21.9838" stroke="#191919" stroke-miterlimit="10" stroke-linecap="round"/>
<path d="M10.5521 24.6345L7.15614 17.7583C6.95954 17.4031 6.90765 16.9852 7.01136 16.5924C7.11507 16.1996 7.36633 15.8623 7.7124 15.6514V15.6514C7.89828 15.5379 8.10571 15.4644 8.32145 15.4359C8.53719 15.4073 8.75649 15.4242 8.96535 15.4855C9.17422 15.5468 9.36805 15.6511 9.53447 15.7919C9.70089 15.9326 9.83624 16.1067 9.93187 16.3029L10.7904 18.0654L13.0914 23.1772" stroke="#191919" stroke-miterlimit="10" stroke-linecap="round"/>
<path d="M15.6787 36.7885C14.861 36.2534 11.7052 34.0814 10.6409 31.7633L6.43186 22.609L6.12499 21.9427C5.97815 21.6189 5.95999 21.2511 6.07423 20.9143C6.18847 20.5776 6.42648 20.2973 6.73965 20.1308V20.1308C6.9037 20.0443 7.0833 19.9916 7.26792 19.9758C7.45254 19.9599 7.63845 19.9813 7.81472 20.0386C7.991 20.0959 8.15409 20.188 8.29441 20.3095C8.43474 20.4309 8.54947 20.5793 8.63186 20.7459L8.99713 21.4848" stroke="#191919" stroke-miterlimit="10" stroke-linecap="round"/>
<path d="M13.2463 16.5668L12.768 15.5795C12.6088 15.2517 12.5797 14.8756 12.6864 14.5271C12.7931 14.1786 13.0277 13.8839 13.3428 13.7024V13.7024C13.5118 13.6053 13.6989 13.5437 13.8925 13.5215C14.086 13.4993 14.2821 13.517 14.4687 13.5734C14.6552 13.6299 14.8283 13.7239 14.9775 13.8497C15.1266 13.9756 15.2486 14.1307 15.336 14.3055L16.9946 17.6268L20.1708 24.1615C20.1831 24.1859 20.2032 24.2055 20.2279 24.2171C20.2526 24.2287 20.2804 24.2316 20.307 24.2253C20.3335 24.2191 20.3572 24.2041 20.3742 24.1827C20.3912 24.1613 20.4006 24.1348 20.4007 24.1075V18.1814C20.4007 17.9693 20.4424 17.7593 20.5233 17.5633C20.6042 17.3674 20.7227 17.1893 20.8722 17.0394C21.0217 16.8895 21.1991 16.7706 21.3943 16.6895C21.5896 16.6084 21.7989 16.5667 22.0102 16.5668V16.5668C22.4368 16.5668 22.8459 16.7369 23.1476 17.0397C23.4492 17.3425 23.6187 17.7532 23.6187 18.1814V27.1794C23.6187 27.1794 23.1969 31.274 24.009 32.8495" stroke="#191919" stroke-miterlimit="10" stroke-linecap="round"/>
<path d="M24.118 32.7847L15.6544 36.8078C14.9228 37.1556 14.6106 38.0328 14.957 38.7672C15.3035 39.5016 16.1774 39.815 16.9091 39.4672L25.3727 35.4442C26.1043 35.0964 26.4165 34.2191 26.07 33.4847C25.7236 32.7504 24.8496 32.4369 24.118 32.7847Z" stroke="#191919" stroke-miterlimit="10" stroke-linecap="round"/>
<path d="M17.8482 41L17.1613 39.4673" stroke="#191919" stroke-miterlimit="10" stroke-linecap="round"/>
<path d="M28.0297 40.2571L25.6675 35.2793" stroke="#191919" stroke-miterlimit="10" stroke-linecap="round"/>
<path d="M14.4069 11.3836L12.4739 9.46657C12.2039 9.19896 12.0505 8.83489 12.0472 8.45401C12.0439 8.07313 12.191 7.70643 12.4563 7.43414V7.43414C12.7184 7.16478 13.075 7.00908 13.45 7.00038C13.825 6.99169 14.1884 7.13068 14.4626 7.38761L21.8794 14.7905" stroke="#191919" stroke-miterlimit="10" stroke-linecap="round"/>
<path d="M12.8095 14.2162L12.2615 13.6774C11.9596 13.4067 11.7737 13.0292 11.7427 12.624C11.7118 12.2188 11.8383 11.8173 12.0956 11.5035V11.5035C12.2339 11.3347 12.4058 11.1967 12.6002 11.0982C12.7946 10.9998 13.0074 10.9431 13.2248 10.9318C13.4423 10.9205 13.6598 10.9548 13.8633 11.0326C14.0668 11.1104 14.2519 11.2299 14.4068 11.3835L15.7975 12.7654L19.645 16.8331" stroke="#191919" stroke-miterlimit="10" stroke-linecap="round"/>
<path d="M26.5456 28.8386C25.5202 28.582 24.5139 28.2533 23.5344 27.855" stroke="#191919" stroke-miterlimit="10" stroke-linecap="round"/>
<path d="M17.6235 10.5454L16.8475 9.77118C16.5901 9.51415 16.4396 9.16863 16.4264 8.80446C16.4131 8.4403 16.5381 8.08467 16.7761 7.80948C16.9035 7.66138 17.0598 7.54095 17.2352 7.45557C17.4106 7.37019 17.6016 7.32166 17.7963 7.31295C17.9911 7.30424 18.1856 7.33553 18.3679 7.4049C18.5502 7.47428 18.7164 7.58028 18.8565 7.71642L21.5099 10.3053L26.6506 15.4283C26.6696 15.4498 26.6955 15.4638 26.7239 15.4679C26.7522 15.472 26.781 15.4658 26.8052 15.4504C26.8294 15.4351 26.8474 15.4116 26.8559 15.3842C26.8644 15.3568 26.863 15.3272 26.8518 15.3008L24.9049 9.7079C24.7646 9.3035 24.7901 8.85973 24.9758 8.47422C25.1615 8.0887 25.4921 7.79302 25.895 7.65221V7.65221C26.298 7.51138 26.7403 7.53696 27.1245 7.72334C27.5087 7.90972 27.8034 8.24162 27.9439 8.64609L30.8911 17.1434C30.8911 17.1434 31.834 21.145 33.1162 22.3696" stroke="#191919" stroke-miterlimit="10" stroke-linecap="round"/>
<path d="M33.2027 22.2674L26.528 28.8606C25.951 29.4306 25.9436 30.3621 26.5114 30.9412C27.0792 31.5204 28.0072 31.5279 28.5842 30.958L35.2589 24.3647C35.8359 23.7948 35.8433 22.8633 35.2755 22.2841C34.7077 21.7049 33.7797 21.6974 33.2027 22.2674Z" stroke="#191919" stroke-miterlimit="10" stroke-linecap="round"/>
<path d="M29.9729 32.0975L28.8214 30.8774" stroke="#191919" stroke-miterlimit="10" stroke-linecap="round"/>
<path d="M39.3452 28.0348L35.4829 24.1133" stroke="#191919" stroke-miterlimit="10" stroke-linecap="round"/>
<circle cx="20.5" cy="20.5" r="20" stroke="#191919"/>
</g>
<defs>
<clipPath id="clip0">
<rect width="41" height="41" rx="20.5" fill="white"/>
</clipPath>
</defs>
</svg>
