<svg width="41" height="41" viewBox="0 0 41 41" fill="none" xmlns="http://www.w3.org/2000/svg">
<circle cx="20.5" cy="20.5" r="20" stroke="black"/>
<path d="M22.6665 16.6698H22.6576C22.6576 14.3116 22.6948 11.9528 22.646 9.59521C22.6062 7.68401 20.4604 6.44207 18.6664 7.25125C17.4879 7.78307 16.9737 8.7204 16.9756 9.96049C16.9821 14.5227 16.9756 19.085 16.9846 23.6466C16.9846 24.1475 16.81 24.4973 16.3858 24.792C14.1995 26.3106 13.4062 29.1214 14.4659 31.5168C15.5192 33.8979 18.1708 35.2971 20.7961 34.86C23.1268 34.4699 25.0132 32.7921 25.4966 30.5528C26.0062 28.194 25.2199 26.2493 23.2429 24.7777C22.8379 24.4762 22.6601 24.1388 22.6653 23.6534C22.671 21.3262 22.6665 18.9989 22.6665 16.6698Z" stroke="black" stroke-miterlimit="10"/>
<path d="M27.9297 10.6768C27.4605 10.6848 26.4284 10.6768 25.9585 10.6768C25.4887 10.6768 25.0195 10.683 24.5464 10.6768" stroke="black" stroke-miterlimit="10" stroke-linecap="round"/>
<path d="M27.9297 13.7632C27.4605 13.7712 26.4284 13.7632 25.9585 13.7632C25.4887 13.7632 25.0195 13.7694 24.5464 13.7632" stroke="black" stroke-miterlimit="10" stroke-linecap="round"/>
<path d="M27.9297 16.8491C27.4605 16.8572 26.4284 16.8491 25.9585 16.8491C25.4887 16.8491 25.0195 16.8559 24.5464 16.8491" stroke="black" stroke-miterlimit="10" stroke-linecap="round"/>
<path d="M19.8183 31.2267C20.2109 31.2271 20.5948 31.115 20.9213 30.9047C21.2478 30.6944 21.5022 30.3954 21.6523 30.0454C21.8024 29.6955 21.8414 29.3105 21.7644 28.9391C21.6874 28.5678 21.4978 28.2269 21.2197 27.9596C20.9416 27.6923 20.5874 27.5106 20.2022 27.4377C19.8169 27.3647 19.4179 27.4037 19.0556 27.5498C18.6934 27.6958 18.3842 27.9422 18.1673 28.2579C17.9505 28.5736 17.8356 28.9443 17.8374 29.323C17.843 29.8274 18.0537 30.3096 18.4241 30.6656C18.7946 31.0217 19.2953 31.2232 19.8183 31.2267V31.2267Z" stroke="black" stroke-miterlimit="10"/>
<path d="M19.8198 27.3955V12.4644" stroke="black" stroke-miterlimit="10" stroke-linecap="round"/>
</svg>
